<svg xmlns="http://www.w3.org/2000/svg" width="50.5" height="50.5" viewBox="0 0 50.5 50.5"><defs><style>.a{fill:#edeeef;}.b{fill:#99a4ae;}</style></defs><g transform="translate(-201.25 -578)"><path class="a" d="M226.5,578a25.25,25.25,0,1,0,25.25,25.25A25.25,25.25,0,0,0,226.5,578Zm0,44.709a19.459,19.459,0,1,1,19.459-19.459A19.459,19.459,0,0,1,226.5,622.709Z" transform="translate(0 0)"/><path class="b" d="M233.877,595.721a8.337,8.337,0,0,0-16.6,0s0,1.656.07,2.076c.209,2.378.828,7.062,2.67,8.478a24.71,24.71,0,0,0,3.072,2.006,5.12,5.12,0,0,0,4.975,0,24.71,24.71,0,0,0,3.072-2.006c1.842-1.416,2.461-6.1,2.67-8.478C233.873,597.377,233.877,595.721,233.877,595.721Z" transform="translate(0.923 1.586)"/><path class="b" d="M226.054,620.96a19.382,19.382,0,0,0,14.313-6.31l-.008-.194s-.2-2.3-3.9-3.226c-3.2-.8-5.021-.914-6.054-2.723-.464.291-.918.563-1.337.8a6.138,6.138,0,0,1-6.022,0c-.489-.274-1.021-.592-1.569-.943-1.017,1.95-2.845,2.046-6.132,2.869-3.209.8-3.787,2.629-3.885,3.107A19.391,19.391,0,0,0,226.054,620.96Z" transform="translate(0.588 2.749)"/></g></svg>