<svg xmlns="http://www.w3.org/2000/svg" width="22.5" height="22.5" viewBox="0 0 22.5 22.5"><defs><style>.a,.c{fill:#fff;}.a,.b,.c{stroke:#fff;}.a,.b{stroke-linecap:round;stroke-linejoin:round;}.a{stroke-width:0.5px;}.b{fill:none;}.b,.c{stroke-width:1.5px;}</style></defs><g transform="translate(-944.5 -536)"><circle class="a" cx="2.316" cy="2.316" r="2.316" transform="translate(953.434 536.25)"/><circle class="a" cx="2.316" cy="2.316" r="2.316" transform="translate(953.434 553.618)"/><line class="b" y1="12.158" transform="translate(955.75 541.461)"/><circle class="a" cx="2.316" cy="2.316" r="2.316" transform="translate(947.294 538.794)"/><circle class="a" cx="2.316" cy="2.316" r="2.316" transform="translate(959.575 551.075)"/><line class="b" x1="9.003" y1="9.003" transform="translate(951.25 542.75)"/><circle class="a" cx="2.316" cy="2.316" r="2.316" transform="translate(947.294 551.075)"/><circle class="a" cx="2.316" cy="2.316" r="2.316" transform="translate(959.575 538.794)"/><line class="b" x1="9.003" y2="9.003" transform="translate(951.25 542.747)"/><circle class="a" cx="2.316" cy="2.316" r="2.316" transform="translate(944.75 544.934)"/><circle class="a" cx="2.316" cy="2.316" r="2.316" transform="translate(962.118 544.934)"/><line class="b" x1="12.158" transform="translate(949.961 547.25)"/><circle class="c" cx="2.895" cy="2.895" r="2.895" transform="translate(952.855 544.355)"/></g></svg>