<svg xmlns="http://www.w3.org/2000/svg" width="24.312" height="25.2" viewBox="0 0 24.312 25.2"><defs><style>.a,.b{fill:#fff;}.b{stroke:#fff;stroke-linecap:round;stroke-linejoin:round;stroke-width:2px;}.c{fill:#00b490;}</style></defs><g transform="translate(-892 -587)"><path class="a" d="M906.163,607.642c.893-1.049.825-3.641.654-4.733l-.018-.215a4.9,4.9,0,0,1,1.944-3.893,3.077,3.077,0,0,1-.143-.875,3.12,3.12,0,0,1,2.669-3.078v-1.461a4.1,4.1,0,0,0-4.09-4.09H896.09a4.094,4.094,0,0,0-4.09,4.09v11.089a4.1,4.1,0,0,0,4.09,4.09h9.688A1.674,1.674,0,0,1,906.163,607.642Z" transform="translate(0 0.455)"/><line class="b" y2="4.379" transform="translate(898.131 588)"/><line class="b" y2="4.379" transform="translate(905.137 588)"/><g transform="translate(897.224 595.06)"><rect class="c" width="2.036" height="2.036" rx="0.67" transform="translate(0 3.308)"/><rect class="c" width="2.036" height="2.036" rx="0.67" transform="translate(3.393 3.308)"/><rect class="c" width="2.036" height="2.036" rx="0.67" transform="translate(6.785 3.308)"/><rect class="c" width="2.036" height="2.036" rx="0.67" transform="translate(0 6.616)"/><rect class="c" width="2.036" height="2.036" rx="0.67" transform="translate(3.393 6.616)"/><rect class="c" width="2.036" height="2.036" rx="0.67"/><rect class="c" width="2.036" height="2.036" rx="0.67" transform="translate(3.393)"/><g transform="translate(6.785)"><rect class="c" width="2.036" height="2.036" rx="0.67" transform="translate(0 6.616)"/><rect class="c" width="2.036" height="2.036" rx="0.67"/></g></g><path class="a" d="M907.8,606.475h4.287a.3.3,0,0,0,.226-.5c-1.591-1.871-.964-5.839-.964-5.839a3.549,3.549,0,0,0-7.1,0s.627,3.968-.964,5.839a.3.3,0,0,0,.227.5H907.8" transform="translate(3.93 3.012)"/><path class="a" d="M907.058,596.394a3.521,3.521,0,0,1,1.621.394,1.747,1.747,0,1,0-3.37-.648,1.729,1.729,0,0,0,.128.648A3.517,3.517,0,0,1,907.058,596.394Z" transform="translate(4.667 2.242)"/><path class="a" d="M905.309,604.622a1.748,1.748,0,1,0,3.5,0h-3.5Z" transform="translate(4.667 5.829)"/></g></svg>