<svg xmlns="http://www.w3.org/2000/svg" width="22" height="22" viewBox="0 0 22 22"><defs><style>.a{fill:#fff;}.b{fill:none;stroke:#00b490;stroke-linecap:round;stroke-linejoin:round;stroke-width:1.5px;}</style></defs><g transform="translate(-799.5 -586.5)"><circle class="a" cx="11" cy="11" r="11" transform="translate(799.5 586.5)"/><g transform="translate(806.373 592.435)"><path class="b" d="M810.761,596.467h-3.334a2.451,2.451,0,0,1-2.46-2.443v-.361a2.451,2.451,0,0,1,2.46-2.443h3.334a2.451,2.451,0,0,1,2.46,2.443" transform="translate(-804.967 -591.221)"/><path class="b" d="M807.427,595.394h3.334a2.451,2.451,0,0,1,2.46,2.443v.361a2.451,2.451,0,0,1-2.46,2.443h-3.334a2.451,2.451,0,0,1-2.46-2.443" transform="translate(-804.967 -590.148)"/></g><g transform="translate(810.5 590.264)"><line class="b" y2="14.472"/></g></g></svg>