<svg xmlns="http://www.w3.org/2000/svg" width="23" height="20.2" viewBox="0 0 23 20.2"><defs><style>.a{fill:#fff;}.b,.d{fill:none;}.b,.c{stroke:#fff;}.b,.c,.d{stroke-linecap:round;stroke-linejoin:round;}.b{stroke-width:1.3px;}.c{fill:#00b490;stroke-width:0.05px;}.d{stroke:#00b490;}</style></defs><g transform="translate(-829.5 -588.625)"><rect class="a" width="23" height="16.1" rx="1.335" transform="translate(829.5 588.625)"/><line class="b" x2="13.8" transform="translate(834.1 608.175)"/><line class="b" y2="3.45" transform="translate(841 604.725)"/><g transform="translate(833.525 593.225)"><path class="c" d="M.374,0h2.7A.374.374,0,0,1,3.45.374V3.45a0,0,0,0,1,0,0H0a0,0,0,0,1,0,0V.374A.374.374,0,0,1,.374,0Z" transform="translate(0 4.6)"/><path class="c" d="M.374,0h2.7A.374.374,0,0,1,3.45.374V5.75a0,0,0,0,1,0,0H0a0,0,0,0,1,0,0V.374A.374.374,0,0,1,.374,0Z" transform="translate(5.75 2.3)"/><path class="c" d="M.374,0h2.7A.374.374,0,0,1,3.45.374V8.05a0,0,0,0,1,0,0H0a0,0,0,0,1,0,0V.374A.374.374,0,0,1,.374,0Z" transform="translate(11.5)"/></g><line class="d" x2="18.4" transform="translate(831.8 601.275)"/></g></svg>