<svg xmlns="http://www.w3.org/2000/svg" width="16.5" height="26.574" viewBox="0 0 16.5 26.574"><defs><style>.a{fill:#99a4ae;}</style></defs><g transform="translate(-278.998 -587.069)"><path class="a" d="M287.248,610.091h7.709a.511.511,0,0,0,.407-.851c-2.862-3.192-1.735-9.968-1.735-9.968a6.39,6.39,0,0,0-12.764,0s1.127,6.775-1.735,9.968a.511.511,0,0,0,.407.851h7.709" transform="translate(0 -1.08)"/><path class="a" d="M288.023,590.486a6.627,6.627,0,0,1,2.915.673,2.838,2.838,0,0,0,.229-1.105,3.148,3.148,0,0,0-6.288,0,2.837,2.837,0,0,0,.229,1.105A6.626,6.626,0,0,1,288.023,590.486Z" transform="translate(-0.775 0)"/><path class="a" d="M284.879,615.69a3.148,3.148,0,0,0,6.288,0h-6.288Z" transform="translate(-0.775 -5.03)"/></g></svg>