<svg xmlns="http://www.w3.org/2000/svg" width="22" height="20.981" viewBox="0 0 22 20.981"><defs><style>.a{fill:#fff;}</style></defs><path class="a" d="M783.776,584.1l2.943,5.962a.588.588,0,0,0,.444.323l6.579.956a.59.59,0,0,1,.327,1.006l-4.763,4.64a.594.594,0,0,0-.169.522l1.125,6.552a.589.589,0,0,1-.855.622l-5.885-3.094a.591.591,0,0,0-.549,0l-5.884,3.094a.589.589,0,0,1-.855-.622l1.124-6.552a.588.588,0,0,0-.169-.522l-4.761-4.64a.589.589,0,0,1,.326-1.006l6.58-.956a.59.59,0,0,0,.444-.323l2.941-5.962A.589.589,0,0,1,783.776,584.1Z" transform="translate(-772.248 -583.771)"/></svg>