<svg xmlns="http://www.w3.org/2000/svg" width="16.75" height="24.103" viewBox="0 0 16.75 24.103"><defs><style>.a{fill:none;stroke:#fff;stroke-linecap:round;stroke-linejoin:round;stroke-width:2px;}.b{fill:#fff;}</style></defs><g transform="translate(-94 -585)"><path class="a" d="M100.239,597.552v-6.78A4.772,4.772,0,0,1,105.01,586h0a4.772,4.772,0,0,1,4.771,4.771v6.78" transform="translate(-2.635)"/><path class="b" d="M102.375,597a8.375,8.375,0,1,0,8.375,8.375A8.375,8.375,0,0,0,102.375,597Zm1.155,9.21v1.476a1.155,1.155,0,1,1-2.31,0V606.21a2.31,2.31,0,1,1,2.31,0Z" transform="translate(0 -4.647)"/></g></svg>