<svg xmlns="http://www.w3.org/2000/svg" width="22" height="22" viewBox="0 0 22 22"><defs><style>.a{fill:#fff;}</style></defs><path class="a" d="M763.3,593h-3.077a7.415,7.415,0,0,0-.7-1.694l2.175-2.174a.7.7,0,0,0,0-.992L759.86,586.3a.7.7,0,0,0-.992,0l-2.174,2.175a7.415,7.415,0,0,0-1.694-.7V584.7a.7.7,0,0,0-.7-.7h-2.6a.7.7,0,0,0-.7.7v3.077a7.415,7.415,0,0,0-1.694.7l-2.174-2.175a.7.7,0,0,0-.992,0L744.3,588.14a.7.7,0,0,0,0,.992l2.175,2.174a7.415,7.415,0,0,0-.7,1.694H742.7a.7.7,0,0,0-.7.7v2.6a.7.7,0,0,0,.7.7h3.077a7.415,7.415,0,0,0,.7,1.694l-2.175,2.174a.7.7,0,0,0,0,.992l1.837,1.837a.7.7,0,0,0,.992,0l2.174-2.175a7.415,7.415,0,0,0,1.694.7V605.3a.7.7,0,0,0,.7.7h2.6a.7.7,0,0,0,.7-.7v-3.077a7.415,7.415,0,0,0,1.694-.7l2.174,2.175a.7.7,0,0,0,.992,0l1.837-1.837a.7.7,0,0,0,0-.992l-2.175-2.174a7.415,7.415,0,0,0,.7-1.694H763.3a.7.7,0,0,0,.7-.7v-2.6A.7.7,0,0,0,763.3,593ZM753,598.5a3.5,3.5,0,1,1,3.5-3.5A3.5,3.5,0,0,1,753,598.5Z" transform="translate(-742 -584)"/></svg>