<svg xmlns="http://www.w3.org/2000/svg" width="24.654" height="23.917" viewBox="0 0 24.654 23.917"><defs><style>.a{fill:#99a4ae;}</style></defs><g transform="translate(-316 -591.052)"><path class="a" d="M324.2,596.87h9.085a.982.982,0,1,0,0-1.963H324.2a.982.982,0,1,0,0,1.963Z" transform="translate(-0.132 -0.07)"/><path class="a" d="M324.2,599.955h9.085a.982.982,0,1,0,0-1.963H324.2a.982.982,0,1,0,0,1.963Z" transform="translate(-0.132 -0.127)"/><path class="a" d="M318.1,614.937l2.426-11.74a2.913,2.913,0,0,1,1.4-1.971l-.587-8.21h13.929l.558,7.8h1.968l-.632-8.855a.982.982,0,0,0-.98-.911h-15.9a.982.982,0,0,0-.98,1.051l.2,2.733h-.44a3.113,3.113,0,0,0-2.284.987,2.841,2.841,0,0,0-.762,2.174l1.273,16.067A.97.97,0,0,0,318.1,614.937Z" transform="translate(0)"/><path class="a" d="M323.485,603a.974.974,0,0,0-.957.8l-2.353,11.392h18.406l1.987-10.6.15-.813a.659.659,0,0,0-.648-.778Z" transform="translate(-0.076 -0.218)"/></g></svg>