<svg xmlns="http://www.w3.org/2000/svg" width="27.627" height="31.018" viewBox="0 0 27.627 31.018"><defs><style>.a{fill:#fff;}.b{fill:#00b490;}</style></defs><g transform="translate(-916.543 -579.285)"><path class="a" d="M932.338,600.556a7.838,7.838,0,1,1,7.838-7.838A7.846,7.846,0,0,1,932.338,600.556Z" transform="translate(1.23 -5.594)"/><g transform="translate(930.407 583.263)"><path class="b" d="M931.086,591.357h-2.077a2.119,2.119,0,0,1-2.122-2.111v-.227a2.119,2.119,0,0,1,2.122-2.111h2.077a2.119,2.119,0,0,1,2.122,2.111.587.587,0,1,1-1.174,0,.943.943,0,0,0-.948-.935h-2.077a.943.943,0,0,0-.948.935v.227a.943.943,0,0,0,.948.935h2.077a.588.588,0,0,1,0,1.176Z" transform="translate(-926.887 -586.909)"/><path class="b" d="M931.086,593.025h-2.077a2.119,2.119,0,0,1-2.122-2.11.587.587,0,1,1,1.174,0,.942.942,0,0,0,.948.935h2.077a.942.942,0,0,0,.948-.935v-.225a.942.942,0,0,0-.948-.935h-2.077a.588.588,0,0,1,0-1.176h2.077a2.119,2.119,0,0,1,2.122,2.111v.225A2.119,2.119,0,0,1,931.086,593.025Z" transform="translate(-926.887 -585.306)"/></g><g transform="translate(932.98 581.911)"><path class="b" d="M928.788,596.417a.587.587,0,0,1-.588-.588v-9.022a.588.588,0,1,1,1.176,0v9.022A.587.587,0,0,1,928.788,596.417Z" transform="translate(-928.2 -586.219)"/></g><rect class="a" width="11.14" height="4.289" rx="1.111" transform="translate(919.576 599.393) rotate(45)"/><path class="a" d="M942.836,593.13a.607.607,0,0,0-.424-.234.664.664,0,0,0-.465.146l-3.35,2.872a2.482,2.482,0,0,1,.018.3,2.365,2.365,0,0,1-2.364,2.363h-6.3a.787.787,0,1,1,0-1.575h6.3a.788.788,0,1,0,0-1.576h-6.3a.794.794,0,0,1-.557-.231,6.136,6.136,0,0,0-4.169-1.345c-2.041,0-3.785,2.073-4.5,3.054l5.386,5.384a8.465,8.465,0,0,1,3.838-1.461h6.3a3.808,3.808,0,0,0,2.53-1.722l4.056-5.213A.62.62,0,0,0,942.836,593.13Z" transform="translate(1.203 2.631)"/></g></svg>