<svg xmlns="http://www.w3.org/2000/svg" width="25" height="25.001" viewBox="0 0 25 25.001"><defs><style>.a{fill:#99a4ae;}</style></defs><g transform="translate(-595 -211)"><path class="a" d="M712.143,495.732l7.18,2.745a1.193,1.193,0,0,1-.852,2.229,1.337,1.337,0,0,1-.135-.062l-6.783-3.616a.712.712,0,0,1,.589-1.294" transform="translate(-113.729 -280.227)"/><path class="a" d="M756.17,471.539l3.137,7.018a1.193,1.193,0,0,1-2.178.974c-.02-.044-.037-.095-.052-.14l-2.238-7.354a.712.712,0,0,1,1.332-.5" transform="translate(-149.442 -260.117)"/><path class="a" d="M787.842,485.568l-2.744,7.181a1.192,1.192,0,0,1-2.228-.851,1.209,1.209,0,0,1,.061-.136l3.617-6.784a.712.712,0,0,1,1.294.59" transform="translate(-172.348 -271.153)"/><path class="a" d="M793.9,529.6l-7.019,3.138a1.193,1.193,0,0,1-.973-2.178,1.239,1.239,0,0,1,.14-.052l7.354-2.239a.712.712,0,0,1,.5,1.331" transform="translate(-174.318 -306.87)"/><path class="a" d="M780.792,561.272l-7.182-2.744a1.193,1.193,0,1,1,.852-2.229c.045.018.094.041.135.062l6.783,3.617a.712.712,0,0,1-.589,1.294" transform="translate(-164.205 -329.777)"/><path class="a" d="M756.206,567.328l-3.137-7.018a1.193,1.193,0,0,1,2.177-.974c.02.044.038.1.053.139l2.239,7.354a.713.713,0,0,1-1.333.5" transform="translate(-147.934 -331.749)"/><path class="a" d="M722.305,554.223l2.744-7.181a1.193,1.193,0,0,1,2.228.852,1.424,1.424,0,0,1-.061.135l-3.617,6.784a.713.713,0,0,1-1.294-.59" transform="translate(-122.8 -321.636)"/><path class="a" d="M698.112,529.636l7.018-3.137a1.193,1.193,0,1,1,.974,2.178,1.36,1.36,0,0,1-.139.052l-7.354,2.239a.712.712,0,0,1-.5-1.332" transform="translate(-102.69 -305.363)"/></g></svg>