<svg xmlns="http://www.w3.org/2000/svg" width="220" height="57.663" viewBox="0 0 220 57.663"><defs><style>.a{fill:#2d5098;}.b{fill:#00b490;}</style></defs><path class="a" d="M972.531,505.769a7.066,7.066,0,0,0-5.328,2.223c-.2.212-.412.116-.46-.077l-.242-1.182a.848.848,0,0,0-.826-.654h-2.493a.846.846,0,0,0-.845.845v16.339a.845.845,0,0,0,.845.843h3.177a.843.843,0,0,0,.844-.843v-9.792a1.943,1.943,0,0,1,.194-.865,4.172,4.172,0,0,1,3.6-2.468c2.311,0,3.234,1.437,3.22,3.627v9.5a.842.842,0,0,0,.841.843h3.179a.845.845,0,0,0,.845-.843V513.2c0-4.715-2.415-7.436-6.552-7.436m38.425,14.322a4.856,4.856,0,0,1-4.684-5.033,4.706,4.706,0,1,1,9.4,0,4.885,4.885,0,0,1-4.719,5.033m0-14.4a9.424,9.424,0,1,0,9.246,9.362,9.361,9.361,0,0,0-9.246-9.362m-11.783,13.772-1.757-1.483a.848.848,0,0,0-1.132.117,4.771,4.771,0,0,1-3.824,1.99,4.98,4.98,0,0,1,.039-9.949,4.91,4.91,0,0,1,3.591,1.562c.351.35.779.546,1.17.116l1.637-1.794c.393-.391.588-.9.2-1.287a8.929,8.929,0,0,0-6.714-3.043,9.423,9.423,0,1,0-.037,18.844,8.07,8.07,0,0,0,7.14-3.786c.311-.467.117-.9-.311-1.287m-43.862-22.308a2.686,2.686,0,0,0-2.723,2.724,2.714,2.714,0,0,0,2.723,2.757,2.743,2.743,0,0,0,2.758-2.757,2.716,2.716,0,0,0-2.758-2.724m1.636,8.926h-3.16a.865.865,0,0,0-.858.859v16.307a.893.893,0,0,0,.858.858h3.16a.893.893,0,0,0,.859-.858V506.944a.865.865,0,0,0-.859-.859m-66.605,13.382-1.756-1.483a.848.848,0,0,0-1.131.117,4.772,4.772,0,0,1-3.824,1.99,4.98,4.98,0,0,1,.04-9.949,4.918,4.918,0,0,1,3.591,1.562c.35.35.779.546,1.168.116l1.639-1.794c.39-.391.585-.9.2-1.287a8.929,8.929,0,0,0-6.712-3.043,9.423,9.423,0,1,0-.039,18.844,8.07,8.07,0,0,0,7.14-3.786c.312-.467.116-.9-.312-1.287m11.785.624a4.855,4.855,0,0,1-4.682-5.033,4.706,4.706,0,1,1,9.4,0,4.886,4.886,0,0,1-4.721,5.033m0-14.4a9.424,9.424,0,1,0,9.245,9.362,9.359,9.359,0,0,0-9.245-9.362m23.282.073a7.062,7.062,0,0,0-5.326,2.223c-.2.212-.415.117-.459-.077l-.246-1.182a.844.844,0,0,0-.822-.654h-2.5a.844.844,0,0,0-.843.845v16.339a.843.843,0,0,0,.843.843h3.178a.843.843,0,0,0,.845-.843v-9.792a1.961,1.961,0,0,1,.193-.865,4.173,4.173,0,0,1,3.6-2.468c2.313,0,3.235,1.437,3.22,3.627v9.5a.845.845,0,0,0,.846.843h3.177a.845.845,0,0,0,.845-.843V513.2c0-4.715-2.417-7.436-6.555-7.436m18.343,7.411c-2.414-.475-3.259-.837-3.259-2.006a1.958,1.958,0,0,1,2.184-1.716,4.675,4.675,0,0,1,2.5.865.842.842,0,0,0,1.081-.152L947.6,508.5a.842.842,0,0,0,.193-.534.851.851,0,0,0-.372-.7,8.53,8.53,0,0,0-4.933-1.561,7.353,7.353,0,0,0-4.75,1.533,4.876,4.876,0,0,0-1.879,3.942c0,3.213,2.108,4.565,5.787,5.3,2.492.547,3.219.991,3.327,2.264.1,1.125-.913,2.082-2.789,2.082a6.648,6.648,0,0,1-3.794-1.262.84.84,0,0,0-1.178.175l-1.384,1.72a.835.835,0,0,0-.164.5.849.849,0,0,0,.37.7,11.048,11.048,0,0,0,6.341,1.888,7.65,7.65,0,0,0,5.288-1.679,5.26,5.26,0,0,0,1.915-4.094c0-2.938-2.145-4.858-5.821-5.588" transform="translate(-800.201 -486.259)"/><path class="b" d="M713.405,495.794l16.561,6.33a2.751,2.751,0,0,1-1.965,5.14,3.086,3.086,0,0,1-.312-.144l-15.644-8.341a1.643,1.643,0,0,1,1.359-2.985" transform="translate(-705.531 -485.402)"/><path class="b" d="M757.95,472.09l7.235,16.187a2.752,2.752,0,0,1-5.024,2.246c-.046-.1-.085-.219-.12-.322l-5.163-16.961a1.643,1.643,0,0,1,3.071-1.151" transform="translate(-730.9 -471.117)"/><path class="b" d="M794.441,486.832l-6.329,16.562a2.75,2.75,0,0,1-5.138-1.963,2.8,2.8,0,0,1,.142-.313l8.341-15.647a1.643,1.643,0,0,1,2.984,1.361" transform="translate(-747.172 -478.957)"/><path class="b" d="M805.26,531.379l-16.189,7.238a2.751,2.751,0,0,1-2.244-5.024,2.822,2.822,0,0,1,.323-.121l16.961-5.164a1.643,1.643,0,0,1,1.15,3.071" transform="translate(-748.571 -504.329)"/><path class="b" d="M791.177,567.871l-16.564-6.329a2.751,2.751,0,1,1,1.965-5.14c.1.04.217.093.313.143l15.645,8.341a1.643,1.643,0,0,1-1.358,2.984" transform="translate(-741.387 -520.6)"/><path class="b" d="M760.441,578.69,753.2,562.5a2.751,2.751,0,0,1,5.022-2.246c.046.1.087.22.122.322l5.165,16.961a1.644,1.644,0,0,1-3.073,1.15" transform="translate(-729.829 -522.001)"/><path class="b" d="M722.366,564.606l6.33-16.562a2.751,2.751,0,0,1,5.14,1.965,3.3,3.3,0,0,1-.141.312l-8.343,15.646a1.643,1.643,0,0,1-2.985-1.36" transform="translate(-711.975 -514.817)"/><path class="b" d="M698.663,533.87l16.186-7.236a2.751,2.751,0,1,1,2.246,5.023,3.166,3.166,0,0,1-.32.12l-16.962,5.164a1.643,1.643,0,0,1-1.148-3.071" transform="translate(-697.69 -503.258)"/></svg>