<svg xmlns="http://www.w3.org/2000/svg" width="631.75" height="592.247" viewBox="0 0 631.75 592.247"><defs><style>.a{opacity:0.93;}.b{fill:#1b6fa5;}.c,.i{fill:#145f91;}.c,.d,.e,.f,.g,.h,.i{stroke:rgba(0,0,0,0);}.c,.d,.e,.h{opacity:0.53;}.d{fill:#0f6095;}.e{fill:#56b5f3;}.f{fill:#55b3f1;opacity:0.66;}.g,.h,.j,.k{fill:#fff;}.g,.j{opacity:0.84;}.l,.m,.n{fill:#a7dcff;font-family:Gotham-Bold, Gotham;font-weight:700;opacity:0.8;}.l{font-size:49px;}.m{font-size:46px;}.n{font-size:40px;}.o{fill:none;stroke:#1c5c85;stroke-linecap:round;stroke-linejoin:round;stroke-width:1.5px;}</style></defs><g transform="translate(-885.25 -222.419)"><g class="a" transform="translate(1257.785 222.419)"><path class="b" d="M735.637,378.2l74.451,28.457a12.368,12.368,0,0,1-8.83,23.106,14.238,14.238,0,0,1-1.4-.647l-70.329-37.5a7.387,7.387,0,0,1,6.111-13.419" transform="translate(-700.239 -331.486)"/><path class="b" d="M811.715,341.562,844.24,414.33a12.37,12.37,0,0,1-22.585,10.1c-.205-.457-.382-.984-.537-1.446l-23.211-76.249a7.387,7.387,0,0,1,13.808-5.172" transform="translate(-690.112 -337.188)"/><path class="b" d="M896.116,369.459l-28.453,74.453A12.364,12.364,0,1,1,845.2,433.68l37.5-70.34a7.388,7.388,0,0,1,13.417,6.119" transform="translate(-683.616 -334.059)"/><path class="b" d="M937.9,445.535l-72.777,32.536a12.368,12.368,0,0,1-10.087-22.585,12.788,12.788,0,0,1,1.45-.543l76.245-23.213a7.385,7.385,0,0,1,5.17,13.8" transform="translate(-683.058 -323.931)"/><path class="b" d="M909.757,529.942l-74.468-28.453a12.369,12.369,0,1,1,8.836-23.106c.463.181.977.42,1.408.642l70.329,37.5a7.385,7.385,0,0,1-6.105,13.418" transform="translate(-685.925 -317.435)"/><path class="b" d="M828.151,571.722l-32.527-72.769a12.366,12.366,0,0,1,22.577-10.1c.209.457.392.987.548,1.446l23.219,76.248a7.39,7.39,0,0,1-13.816,5.17" transform="translate(-690.539 -316.876)"/><path class="b" d="M744.38,543.569l28.455-74.454a12.369,12.369,0,0,1,23.106,8.834,14.4,14.4,0,0,1-.636,1.4l-37.5,70.335a7.389,7.389,0,0,1-13.42-6.115" transform="translate(-697.666 -319.744)"/><path class="b" d="M707.746,461.974l72.763-32.527a12.368,12.368,0,1,1,10.1,22.582,14.175,14.175,0,0,1-1.442.541L712.91,475.783a7.385,7.385,0,0,1-5.164-13.808" transform="translate(-703.369 -324.358)"/></g><path class="c" d="M17.182,53.759a3.594,3.594,0,0,1-2.506-.927,4.941,4.941,0,0,1-1.377-3.1c-.445-3.556-2.119-4.461-4.437-5.712A19.683,19.683,0,0,1,1.872,38.3,7.871,7.871,0,0,1,.366,30.853a13.389,13.389,0,0,1,3.5-5.426,11.933,11.933,0,0,1,3.724-2.637c.819-.273.358-1.92-.28-4.2a26.937,26.937,0,0,1-1.352-7.971,8.525,8.525,0,0,1,4.08-7.42A22.259,22.259,0,0,1,21.861,0,20.755,20.755,0,0,1,32.218,2.559,14.263,14.263,0,0,1,36.15,5.846a12.971,12.971,0,0,1,2.453,4.7c1.871,6.549.786,9.876-.454,11.514-1.185-6-4.681-8.795-11.005-8.795a30.352,30.352,0,0,0-5.379.545c-4.711.862-7.947,3.083-9.616,6.6-2.26,4.764-1.092,10.918.949,14.62-.015-.02-1.528-2.089-3.327-2.089a2.432,2.432,0,0,0-1.4.457c-.965.666-1.157,2.681-.465,4.9.983,3.155,3.692,6.527,8.344,6.527a14.254,14.254,0,0,0,1.281,2.959c.809,1.4,2.2,3.149,4.234,3.571.025.019.087.07.177.15A6.9,6.9,0,0,1,17.182,53.759Z" transform="translate(1131.52 292.681)"/><path class="d" d="M56.8,73.291H0V0H21.991a9.775,9.775,0,0,0,3.244.451A40.2,40.2,0,0,0,30.363,0H38.5a1.7,1.7,0,0,1,.708.916,3.711,3.711,0,0,0,1.269,1.847,2.821,2.821,0,0,0,1.666.57,1.877,1.877,0,0,0,1.6-.752,1.687,1.687,0,0,0,.05-1.666c-.1-.246-.22-.537-.365-.916h13.3a21.339,21.339,0,0,0-3.791,11.421A25.621,25.621,0,0,0,56.8,24.94V73.29h0Z" transform="translate(1069.225 415.484)"/><path class="e" d="M72.374,73.291H0V24.94c.371.639.778,1.3,1.212,1.952C5.336,33.126,12.017,39.58,21.071,46.074a2.5,2.5,0,0,0,1.529.654c1.1,0,2.527-1.114,3.051-6.419.229-2.318-2.355-5.732-5.347-9.685l-.007-.009a67.567,67.567,0,0,1-6.083-9.006c-1.855-3.562-2.45-6.565-1.818-9.182.769-3.185,3.307-5.776,7.759-7.92C25.468,1.947,29.648.515,33.313,0h4.1a44.7,44.7,0,0,1,7.8,2.437l.01,0c1.851.7,3.765,1.417,5.872,2.066,5.033,1.55,7.983,3.823,9.02,6.948.895,2.7.32,6-1.756,10.112a80.688,80.688,0,0,1-6.875,10.511c-3.077,4.211-5.734,7.848-5.679,10.065a9.548,9.548,0,0,0,.87,4.364,1.886,1.886,0,0,0,1.665,1.07,3.7,3.7,0,0,0,2.046-.854A134.691,134.691,0,0,0,63.393,32.943a66.007,66.007,0,0,0,7.646-11.588c.5-.993.946-1.986,1.336-2.951V73.29Z" transform="translate(1126.025 415.484)"/><path class="f" d="M6.221,83.667A19.388,19.388,0,0,1,1.5,83.238C.66,83.01.169,82.692.037,82.293c-.227-.681.678-1.368.687-1.374,3.325-8.16,8.888-17.576,16.537-27.986,6.3-8.582,12.648-15.963,16.859-20.644,1.823-3.382,5.4-6.578,10.074-9a34.266,34.266,0,0,1,8.3-3.039,7.961,7.961,0,0,1,.629,3.089,7.885,7.885,0,0,0,3.619,1.088,3.585,3.585,0,0,0,2.685-1.088,3.233,3.233,0,0,0,.8-3.325c-.024-.138-.049-.28-.072-.424A15.645,15.645,0,0,1,69.662,23.2c5.255,2.952,10.847,7.732,16.623,14.207l0-.008a84.517,84.517,0,0,0,1.23-11.149,76.347,76.347,0,0,0-2.27-23.611,7.139,7.139,0,0,1-.28-.665,5.711,5.711,0,0,0,.909.07,12.123,12.123,0,0,0,5.8-1.98s0,0,0-.012l0-.056C93.143,1.869,94.5,4.995,95.6,9.041a79.386,79.386,0,0,1,2.281,13.2c.961,10.361.182,19.972-2.084,25.709-1.44,3.646-3.418,5.686-5.88,6.065a20.211,20.211,0,0,1-3.061.242,14.893,14.893,0,0,1-9.2-2.985,98.3,98.3,0,0,1-1.094,17.11c-.746,4.735-1.781,8.408-2.769,9.827-1.112,1.6-5.834,2.408-14.033,2.408-10.214,0-22.6-1.312-22.714-1.326-1.753-.194-2.77-2.148-3.2-6.149A112.469,112.469,0,0,1,33.73,59.68v-.027c.075-2.752.153-5.6.153-8.4C26.3,61,8.423,83.667,6.221,83.667Z" transform="translate(1103.314 327.236)"/><path class="g" d="M21.07,10.141h0a2.825,2.825,0,0,1-1.666-.57,3.714,3.714,0,0,1-1.269-1.847c-.331-1-1.4-1.468-3.36-1.468a39.119,39.119,0,0,0-4.867.469l-.237.032a42.4,42.4,0,0,1-5.508.5A9.758,9.758,0,0,1,.918,6.807C.3,6.588-.008,6.308,0,5.975.049,4.081,10.15.923,13.245,0A.9.9,0,0,0,13.1.965c.44.838,2.5,1.262,6.136,1.262a1.9,1.9,0,0,0,.9-.481A26.981,26.981,0,0,1,22.1,6.135c.218.579.424,1.125.62,1.589a1.685,1.685,0,0,1-.05,1.666A1.876,1.876,0,0,1,21.07,10.141Z" transform="translate(1090.296 408.676)"/><path class="h" d="M4.283,25.98a3.159,3.159,0,0,1-1.249-.274C-1.873,23.583.366,12.4,1.556,7.686c.464.343.961.7,1.478,1.076a2.517,2.517,0,0,0,1.53.654c1.1,0,2.526-1.114,3.05-6.419a5.712,5.712,0,0,0-.78-3c.255.1.517.213.78.343A4.788,4.788,0,0,1,9.728,2.828a14.519,14.519,0,0,1,1.041,4.25,32.4,32.4,0,0,1-.718,10.49c-1.231,5.267-3.386,8.411-5.766,8.411h0Z" transform="translate(1144.061 452.796)"/><path class="h" d="M4.656,24.971h0a3.943,3.943,0,0,1-.638-.054,3.842,3.842,0,0,1-2.789-2.432C-.29,19.272-.077,13.9.186,10.983c.355-3.953,1.215-7.958,2-9.316A2.782,2.782,0,0,1,4.551,0,3.3,3.3,0,0,1,6.434.71,5.435,5.435,0,0,0,5.85,2.984a9.548,9.548,0,0,0,.87,4.364,1.888,1.888,0,0,0,1.665,1.07A2.854,2.854,0,0,0,9.7,8.047a36.882,36.882,0,0,1,.05,8.131c-.258,2.444-.894,5.731-2.457,7.516A3.418,3.418,0,0,1,4.656,24.971Z" transform="translate(1165.982 454.641)"/><path class="i" d="M52.213,60.848h0a1.887,1.887,0,0,1-1.665-1.071,9.545,9.545,0,0,1-.87-4.364c-.055-2.216,2.6-5.853,5.679-10.064a80.7,80.7,0,0,0,6.875-10.511c2.077-4.108,2.651-7.415,1.757-10.112-1.037-3.125-3.988-5.4-9.02-6.948-2.093-.645-4.014-1.367-5.872-2.066-3.5-1.316-6.521-2.452-9.544-2.652-4.282.153-9.07,1.608-15.524,4.717-4.452,2.145-6.99,4.735-7.759,7.92-.632,2.617-.037,5.621,1.818,9.183a67.58,67.58,0,0,0,6.088,9.013c2.993,3.954,5.577,7.37,5.349,9.688C29,58.885,27.574,60,26.472,60a2.517,2.517,0,0,1-1.53-.654C15.889,52.851,9.207,46.4,5.084,40.164c-3.5-5.293-5.209-10.5-5.077-15.472A22.134,22.134,0,0,1,5.439,11.069a35.2,35.2,0,0,1,7.972-7.01,6.588,6.588,0,0,1,2.919-1A2.5,2.5,0,0,0,18.2,4.316c.115.013,12.513,1.326,22.714,1.326,8.2,0,12.921-.81,14.033-2.408A12.238,12.238,0,0,0,56.3,0a43.644,43.644,0,0,1,11.63,4.9c5.329,3.332,8.66,7.509,9.9,12.415,1.278,5.058.3,10.884-2.918,17.316a65.984,65.984,0,0,1-7.646,11.589A134.669,134.669,0,0,1,54.258,59.993,3.7,3.7,0,0,1,52.213,60.848Z" transform="translate(1122.154 402.213)"/><path class="j" d="M905.537,182.229s.838-16.625-7.321-14.889c0,0-4.271,1.578-3.087,4.781s2.563,6.939,1.1,6.266-2.252-2.808-3.852-2.216,2.757,7.054,6.02,7.879S905.537,182.229,905.537,182.229Z" transform="translate(289.449 145.075)"/><path class="j" d="M872.226,206.279s3.94,2.448,6.3,0-.788-4.081,1.576-7.347,3.939-2.448,5.515-17.957-3.152-21.222-16.547-18.774-11.819,15.509-8.667,21.223c0,0-2.364-3.265-4.727-1.632s0,11.428,7.879,11.428c0,0,1.576,5.713,5.515,6.529A8.892,8.892,0,0,1,872.226,206.279Z" transform="translate(284.21 144.293)"/><path class="c" d="M31.71,55.124a4.884,4.884,0,0,1-.5-.025c-.15-2.7.228-6.158,2.871-7.332,3.237-1.439,5.583-5.443,6.146-8.48.352-1.895.06-3.423-.821-4.3a5.582,5.582,0,0,0-3.87-1.595,3.93,3.93,0,0,0-4.12,4.258,4.169,4.169,0,0,1-1.753.632.754.754,0,0,1-.7-.353c-.518-.876.308-3.3,2.456-7.2,1.059-1.925,1.167-3.625.323-5.053-2.176-3.679-10.451-4.985-16.876-4.985a16.3,16.3,0,0,0-4.753.45l0,0a38.09,38.09,0,0,1-5.084-4.1,22.3,22.3,0,0,1-3.48-4.182A8.943,8.943,0,0,1,0,8.088c.032-2.369,1.463-4.432,4.253-6.13A11.539,11.539,0,0,1,10.227,0c4.226,0,7.193,3.366,10.335,6.93,2.563,2.907,5.212,5.913,8.726,7.28a42.058,42.058,0,0,0,5.139,1.48,36.3,36.3,0,0,1,7.012,2.22,9.826,9.826,0,0,1,4.985,4.748c1.116,2.431,1.268,5.546.463,9.523-.9,4.441-3.056,10.045-6.413,16.654a22.009,22.009,0,0,1-2.669,3.146C36.327,53.413,34.07,55.124,31.71,55.124Z" transform="translate(1257.455 603.289)"/><path class="g" d="M17.18,40.93v0h0A15.03,15.03,0,0,1,11.7,37.711a14.309,14.309,0,0,1-1.935-2.105,7.177,7.177,0,0,0,2.507.5c3.275,0,5.17-2.887,6.184-5.308a22.64,22.64,0,0,0,1.429-5.308,10,10,0,0,1-3.918,4.04,8.964,8.964,0,0,1-4.293,1.032A13.506,13.506,0,0,1,6.04,29.215V25.485H6.034a8.8,8.8,0,0,1-2.325-.4,5.759,5.759,0,0,1-3.528-2.8,1.32,1.32,0,0,1-.1-1.1c.347-.913,1.848-1.513,3.3-2.094S6.329,17.913,6.676,17a1.321,1.321,0,0,0-.1-1.1c-.735-1.47-.97-4.815-.6-8.523A25.165,25.165,0,0,1,6.8,2.864C7.2,1.534,7.671.7,8.171.45A16.3,16.3,0,0,1,12.924,0a44.462,44.462,0,0,1,9.7,1.028c3.726.877,6.139,2.208,7.173,3.957.844,1.428.736,3.128-.323,5.053-2.147,3.9-2.974,6.329-2.456,7.2a.754.754,0,0,0,.7.353,4.2,4.2,0,0,0,1.753-.632A3.93,3.93,0,0,1,33.6,12.7a5.583,5.583,0,0,1,3.87,1.595c.881.881,1.172,2.41.821,4.3a13.076,13.076,0,0,1-2.135,4.943,10.053,10.053,0,0,1-4.011,3.536c-4.51,2.005-2.469,10.629-2.222,11.605a4.4,4.4,0,0,0-.443.039c-.343-.015-.7-.022-1.046-.022A32,32,0,0,0,17.18,40.93Z" transform="translate(1259.396 623.973)"/><path class="g" d="M5.873,18.774a5.23,5.23,0,0,1-.654-.036,5.6,5.6,0,0,1-4.008-2.762A10.39,10.39,0,0,1,.02,11.246,25.356,25.356,0,0,1,.392,6,40.453,40.453,0,0,1,1.876,0a2.167,2.167,0,0,0,.56,1.269c.508.6,1.595,1.344,3.883,1.508.045,0,.091,0,.136,0A3.444,3.444,0,0,0,9.017,1.043a8.115,8.115,0,0,1,.891.441,9.842,9.842,0,0,1,3.368,4.487,9.582,9.582,0,0,1,1.078,4.779c-.086.377-.27.58-.549.6-.051,0-.1.006-.15.006-1.031,0-1.511-.873-2.02-1.8a5.625,5.625,0,0,0-1.149-1.614.624.624,0,0,0-.379-.183.3.3,0,0,0-.228.109c-.578.631-.348,3.864-.087,6.845a3.689,3.689,0,0,1-.785,2.926A4.307,4.307,0,0,1,5.873,18.774Z" transform="translate(1246.14 744.018)"/><path class="h" d="M16.4,16.252h0c-2.839,0-6.677-2.4-9.4-4.411A50.3,50.3,0,0,1,0,5.633,29.591,29.591,0,0,0,.3,1.208,5.885,5.885,0,0,1,4.225,0a15.308,15.308,0,0,1,6.382,1.654,44.839,44.839,0,0,0-.161,5.524c.174,1.563,2.587,3.1,4.872,3.1a3.927,3.927,0,0,0,2.5-.817A4.537,4.537,0,0,0,19.33,6.623l.068-.377c.311.844,1.786,5.191.493,7.881a3.658,3.658,0,0,1-2.226,1.935A3.989,3.989,0,0,1,16.4,16.252Z" transform="translate(1277.544 797.915)"/><path class="h" d="M17.261,16.251h0c-2.882,0-6.792-2.466-9.564-4.535a48.67,48.67,0,0,1-6.941-6.2A2.925,2.925,0,0,1,.267,2.346C.955.877,2.755,0,5.082,0a14.579,14.579,0,0,1,5.631,1.318c.326,3.061.525,4.845.59,5.3a3.551,3.551,0,0,0,1.452,2.382,4.677,4.677,0,0,0,5.493-.018,5.471,5.471,0,0,0,1.937-2.921s0,.007.008.018a18.724,18.724,0,0,1,.812,2.849,8.88,8.88,0,0,1-.233,5.139,3.66,3.66,0,0,1-2.252,1.989A3.988,3.988,0,0,1,17.261,16.251Z" transform="translate(1257.255 797.915)"/><path class="i" d="M30.493,67.091h0c-2.285,0-4.7-1.535-4.872-3.1-.13-1.171.1-4.714.422-9.616.457-7,1.084-16.584,1.008-25.036A81.819,81.819,0,0,0,26.3,17.967c-.531-3.417-1.356-5.743-2.453-6.914a2.634,2.634,0,0,0-1.958-.921c-.052,0-.1,0-.157,0-1.551.091-2.827,1.46-3.791,4.07a41.176,41.176,0,0,0-1.878,9.748c-.758,7.766-.672,17.469-.6,25.265.06,6.706.107,12-.391,13.662A5.47,5.47,0,0,1,13.135,65.8a4.68,4.68,0,0,1-5.494.017,3.554,3.554,0,0,1-1.452-2.383C5.772,60.524.138,5.143.081,4.584A21.981,21.981,0,0,1,.068.974h0l0,0H.079A263.888,263.888,0,0,0,26.752,2.737c8.892,0,14.313-.921,16.111-2.737-.482,15.562-6.79,54.812-8.358,63.437a4.538,4.538,0,0,1-1.514,2.836A3.924,3.924,0,0,1,30.493,67.091Z" transform="translate(1262.37 741.1)"/><path class="f" d="M5.5,105.549h0c-.046,0-.092,0-.136,0-2.289-.164-3.375-.91-3.883-1.507a2.184,2.184,0,0,1-.56-1.27A106.923,106.923,0,0,1,3.07,63.609a122.176,122.176,0,0,1,8.3-23.973,22.175,22.175,0,0,1,4.529-7.01,33.962,33.962,0,0,1,7.145-5.8,38.074,38.074,0,0,1,8.647-3.945,30.515,30.515,0,0,1,9.034-1.457c.35,0,.7.007,1.045.022a5.565,5.565,0,0,1,.8-.047c1.49,0,4.7.37,9.451,2.848,5.926,3.09,12.267,8.4,18.849,15.777a90.511,90.511,0,0,0,1.318-11.937c.317-6.459.152-16.084-2.428-25.263-.006-.012-.145-.293-.3-.713a6.147,6.147,0,0,0,.974.076A13.024,13.024,0,0,0,76.64.073s0-.021,0-.073c1.57,2,3.022,5.345,4.2,9.673A84.908,84.908,0,0,1,83.283,23.8c1.029,11.086.2,21.37-2.23,27.508-1.541,3.9-3.658,6.084-6.292,6.49a21.635,21.635,0,0,1-3.274.259,16.094,16.094,0,0,1-8.859-2.5,145.932,145.932,0,0,1-.469,27.568c-.879,7.8-2.28,14.03-3.656,16.265-1.307,2.123-6.851,3.2-16.48,3.2a262.852,262.852,0,0,1-26.673-1.761c-1.764-.22-2.911-2.223-3.507-6.122C9.778,101.9,7.643,105.549,5.5,105.549Z" transform="translate(1247.099 641.25)"/><path class="j" d="M1018.524,457.643s.9-17.788-7.833-15.93c0,0-4.57,1.688-3.3,5.115s2.743,7.425,1.18,6.7-2.409-3-4.123-2.372,2.951,7.548,6.442,8.43S1018.524,457.643,1018.524,457.643Z" transform="translate(305.215 183.681)"/><g transform="translate(1194.734 740.551)"><circle class="k" cx="5.444" cy="5.444" r="5.444"/><circle class="k" cx="5.444" cy="5.444" r="5.444" transform="translate(18.427)"/><circle class="k" cx="5.444" cy="5.444" r="5.444" transform="translate(0 18.584)"/></g><g transform="translate(1104.075 616.095)"><circle class="k" cx="5.444" cy="5.444" r="5.444" transform="translate(18.427 18.584)"/><circle class="k" cx="5.444" cy="5.444" r="5.444" transform="translate(0 18.584)"/><circle class="k" cx="5.444" cy="5.444" r="5.444" transform="translate(18.427)"/></g><text class="l" transform="translate(1240.1 556.567)"><tspan x="-15.68" y="0">+</tspan></text><text class="m" transform="translate(1057.757 751.563)"><tspan x="-9.384" y="0">-</tspan></text><text class="n" transform="translate(1009.333 399.444)"><tspan x="-17.2" y="0">%</tspan></text><g transform="translate(992.532 525.464)"><circle class="k" cx="5.444" cy="5.444" r="5.444"/><circle class="k" cx="5.444" cy="5.444" r="5.444" transform="translate(18.427)"/><circle class="k" cx="5.444" cy="5.444" r="5.444" transform="translate(0 18.584)"/></g><path class="o" d="M633,321.929h386.376a49.7,49.7,0,0,1,49.7,49.7h0a49.7,49.7,0,0,1-49.7,49.7L682.7,420.871a49.7,49.7,0,0,0-49.7,49.7h0a49.7,49.7,0,0,0,49.7,49.7l336.676.459a49.7,49.7,0,0,1,49.7,49.7h0a49.7,49.7,0,0,1-49.7,49.7H633" transform="translate(253 166.845)"/></g></svg>