<svg xmlns="http://www.w3.org/2000/svg" width="17" height="24.448" viewBox="0 0 17 24.448"><defs><style>.a{fill:none;stroke:#99a4ae;stroke-linecap:round;stroke-linejoin:round;stroke-width:2px;}.b{fill:#99a4ae;}</style></defs><g transform="translate(0 1)"><g transform="translate(0)"><path class="a" d="M100.239,597.724v-6.882A4.843,4.843,0,0,1,105.082,586h0a4.843,4.843,0,0,1,4.843,4.843v6.882" transform="translate(-96.582 -586)"/><path class="b" d="M102.5,597a8.5,8.5,0,1,0,8.5,8.5A8.5,8.5,0,0,0,102.5,597Zm1.172,9.347v1.5a1.172,1.172,0,1,1-2.345,0v-1.5a2.345,2.345,0,1,1,2.345,0Z" transform="translate(-94 -590.552)"/></g></g></svg>